<?xml version="1.0" encoding="utf-8"?><!-- Uploaded to: SVG Repo, www.svgrepo.com, Generator: SVG Repo Mixer Tools -->
<svg width="800px" height="800px" viewBox="0 0 24 24" fill="none" xmlns="http://www.w3.org/2000/svg">
<path d="M8 2C8 1.44772 7.55228 1 7 1C6.44772 1 6 1.44772 6 2V6H2C1.44772 6 1 6.44772 1 7C1 7.55228 1.44772 8 2 8H6V16C6 17.1046 6.89543 18 8 18H16L16 22C16 22.5523 16.4477 23 17 23C17.5523 23 18 22.5523 18 22L18 18H22C22.5523 18 23 17.5523 23 17C23 16.4477 22.5523 16 22 16H8V2Z" fill="#000000"/>
<path d="M16 14C16 14.5523 16.4477 15 17 15C17.5523 15 18 14.5523 18 14V8C18 6.89543 17.1046 6 16 6H10C9.44772 6 9 6.44772 9 7C9 7.55228 9.44772 8 10 8H16V14Z" fill="#000000"/>
</svg>