<?xml version="1.0" encoding="utf-8"?>
<!-- Uploaded to: SVG Repo, www.svgrepo.com, Generator: SVG Repo Mixer Tools -->
<svg width="800px" height="800px" viewBox="0 0 1024 1024" class="icon"  version="1.1" xmlns="http://www.w3.org/2000/svg"><path d="M866.133333 855.466667h-40.533333l-66.133333-8.533334c-51.2-6.4-104.533333-4.266667-155.733334 8.533334l-76.8 19.2c-10.666667 2.133333-23.466667 2.133333-34.133333 0l-74.666667-21.333334c-51.2-12.8-102.4-14.933333-155.733333-8.533333l-66.133333 8.533333H157.866667C117.333333 853.333333 85.333333 821.333333 85.333333 780.8c0-8.533333 2.133333-19.2 4.266667-27.733333l4.266667-12.8c21.333333-53.333333 23.466667-113.066667 8.533333-168.533334l-12.8-42.666666c-4.266667-14.933333-4.266667-27.733333 0-42.666667l6.4-17.066667c19.2-57.6 17.066667-121.6-4.266667-179.2l-2.133333-6.4c-2.133333-4.266667-4.266667-12.8-4.266667-21.333333v-21.333333c0-40.533333 32-72.533333 72.533334-72.533334h40.533333l66.133333 8.533334c51.2 6.4 104.533333 4.266667 155.733334-8.533334l76.8-19.2c10.666667-2.133333 23.466667-2.133333 34.133333 0l74.666667 21.333334c51.2 12.8 102.4 14.933333 155.733333 8.533333l66.133333-8.533333h40.533334c40.533333 0 72.533333 32 72.533333 72.533333v21.333333c0 8.533333-2.133333 19.2-4.266667 27.733334l-2.133333 6.4c-23.466667 57.6-25.6 119.466667-4.266667 179.2l6.4 17.066666c4.266667 12.8 4.266667 27.733333 0 42.666667l-12.8 42.666667c-14.933333 55.466667-12.8 115.2 8.533334 168.533333l4.266666 12.8c4.266667 8.533333 4.266667 17.066667 4.266667 27.733333-2.133333 34.133333-34.133333 66.133333-74.666667 66.133334z" fill="#3949AB" /><path d="M810.666667 768H213.333333c-12.8 0-21.333333-8.533333-21.333333-21.333333V277.333333c0-12.8 8.533333-21.333333 21.333333-21.333333h597.333334c12.8 0 21.333333 8.533333 21.333333 21.333333v469.333334c0 12.8-8.533333 21.333333-21.333333 21.333333z" fill="#BBDEFB" /></svg>